<svg xmlns="http://www.w3.org/2000/svg" version="1.1" width="3685pt" height="1417pt" viewBox="0 0 3684.96 1417.2">
  <defs/>

  <!-- HIGH = BEYAZ DOLU -->
  <g id="HIGH" fill="#FFFFFF" stroke="none">
    <path d="M328.1252,1313.6671 L456.79547,1313.6671 L456.79547,463.27353 L328.71005,463.27353 L328.45502,834.0779 L186.5879,834.0779 L186.5879,463.27353 L58.502506,463.27353 L57.91764,1313.6671 L186.5879,1313.6671 L186.5879,955.14484 L328.37177,955.14484 z"/>
    <path d="M1041.1924,855.133 L830.6411,855.133 L830.6411,977.36975 L914.8616,976.7849 L914.2768,1107.7947 L914.26306,1112.8413 L914.1911,1115.3116 L914.07574,1117.7465 L913.91693,1120.1459 L913.7147,1122.5099 L913.4691,1124.8385 L913.1801,1127.1317 L912.8477,1129.3895 L912.4719,1131.6118 L912.0527,1133.7988 L911.59,1135.9503 L911.084,1138.0665 L910.5345,1140.1472 L909.94165,1142.1926 L909.3054,1144.2025 L908.62573,1146.177 L907.90265,1148.1161 L907.1361,1150.0197 L906.32623,1151.888 L905.47296,1153.7208 L904.57623,1155.5182 L903.6361,1157.2803 L902.6526,1159.0068 L901.6256,1160.698 L900.5553,1162.3539 L899.4415,1163.9742 L898.28436,1165.5592 L897.0838,1167.1088 L895.8398,1168.6228 L894.5524,1170.1016 L893.2216,1171.5449 L891.85315,1172.9487 L890.4527,1174.3092 L889.0202,1175.6265 L887.5557,1176.9 L886.0593,1178.1304 L884.5309,1179.3173 L882.97046,1180.4606 L881.3781,1181.5607 L879.7537,1182.6173 L878.09735,1183.6305 L876.40906,1184.6003 L874.6887,1185.5267 L872.9364,1186.4098 L871.1521,1187.2494 L869.3358,1188.0455 L867.48755,1188.7983 L865.60736,1189.5077 L863.69507,1190.1737 L861.75085,1190.7964 L859.77466,1191.3755 L857.7665,1191.9113 L855.7263,1192.4036 L853.6542,1192.8525 L851.55,1193.2579 L849.4139,1193.6201 L847.2458,1193.9388 L845.04565,1194.2141 L842.8136,1194.446 L840.5495,1194.6344 L838.2535,1194.7795 L835.9255,1194.8812 L833.5654,1194.9395 L831.1694,1194.9188 L828.8065,1194.8572 L826.4768,1194.7544 L824.1802,1194.6105 L821.9167,1194.4254 L819.6863,1194.1992 L817.489,1193.9319 L815.32495,1193.6235 L813.194,1193.274 L811.0961,1192.8833 L809.0314,1192.4515 L806.99976,1191.9786 L805.0012,1191.4645 L803.0359,1190.9094 L801.1037,1190.313 L799.20465,1189.6757 L797.3386,1188.9972 L795.5058,1188.2775 L793.70605,1187.5167 L791.93945,1186.7148 L790.20605,1185.8717 L788.5057,1184.9875 L786.8385,1184.0624 L785.2044,1183.096 L783.60345,1182.0885 L782.0356,1181.0398 L780.5009,1179.9501 L778.9993,1178.8192 L777.53094,1177.6471 L776.0956,1176.434 L774.6934,1175.1797 L773.32434,1173.8843 L771.9935,1172.5524 L770.7062,1171.1885 L769.46216,1169.7926 L768.2616,1168.3646 L767.10443,1166.9048 L765.99066,1165.413 L764.9203,1163.8892 L763.8934,1162.3333 L762.90985,1160.7455 L761.9697,1159.1256 L761.073,1157.4739 L760.21967,1155.79 L759.4098,1154.0743 L758.6433,1152.3267 L757.9202,1150.5469 L757.24054,1148.7351 L756.60425,1146.8915 L756.0114,1145.0157 L755.462,1143.1082 L754.95593,1141.1685 L754.4933,1139.1968 L754.07404,1137.1932 L753.6982,1135.1576 L753.3658,1133.0901 L753.07684,1130.9904 L752.8312,1128.8589 L752.629,1126.6953 L752.4703,1124.4999 L752.35486,1122.2723 L752.28296,1120.0128 L752.25433,1117.7213 L752.2692,1115.398 L752.2692,673.24 L752.2795,667.9043 L752.45654,662.71704 L752.6076,660.17914 L752.80035,657.6783 L753.0348,655.2146 L753.311,652.788 L753.62885,650.3986 L753.98834,648.04626 L754.3896,645.73114 L754.8325,643.45306 L755.31714,641.21216 L755.8435,639.0083 L756.4115,636.8416 L757.02124,634.7121 L757.6726,632.6197 L758.3657,630.56433 L759.1005,628.54614 L759.877,626.5651 L760.6952,624.62115 L761.55505,622.71436 L762.4566,620.84467 L763.3999,619.0121 L764.3849,617.2167 L765.4115,615.4584 L766.47986,613.7372 L767.5899,612.05316 L768.7417,610.4062 L769.93506,608.7964 L771.1702,607.2237 L772.447,605.6881 L773.76044,604.19543 L775.1052,602.7512 L776.4814,601.35565 L777.88904,600.00854 L779.32806,598.71 L780.7985,597.46 L782.30035,596.2586 L783.8336,595.1057 L785.3983,594.0014 L786.9944,592.9456 L788.6219,591.93835 L790.2809,590.9797 L791.9712,590.0695 L793.69293,589.20795 L795.44604,588.3949 L797.23065,587.63043 L799.04663,586.9145 L800.89404,586.24713 L802.77295,585.62823 L804.68317,585.0579 L806.62476,584.5362 L808.59784,584.063 L810.60236,583.63837 L812.63824,583.2622 L814.70557,582.93463 L816.80426,582.65564 L818.9344,582.4252 L821.0959,582.2433 L823.2889,582.1099 L825.51324,582.0251 L827.76904,581.98883 L830.0562,582.0011 L832.1609,581.9871 L834.2348,582.01825 L836.27783,582.0945 L838.29,582.2159 L840.27136,582.3823 L842.22186,582.594 L844.14154,582.8507 L846.03033,583.1525 L847.8883,583.4995 L849.71545,583.89166 L851.5117,584.32886 L853.27716,584.8112 L855.0118,585.3387 L856.7156,585.91125 L858.3885,586.52893 L860.0306,587.1918 L861.6418,587.8997 L863.22217,588.6528 L864.7717,589.451 L866.2904,590.2943 L867.7783,591.18274 L869.2353,592.1163 L870.66144,593.095 L872.0568,594.1188 L873.4213,595.1877 L874.755,596.30176 L876.0578,597.4609 L877.3297,598.66516 L878.57086,599.91455 L879.7812,601.20917 L880.96063,602.54877 L882.1092,603.93353 L883.2247,605.3583 L884.30475,606.8179 L885.34937,608.31226 L886.35864,609.84155 L887.33246,611.4057 L888.2708,613.00464 L889.1738,614.6384 L890.0414,616.3071 L890.8736,618.01056 L891.67035,619.74884 L892.43176,621.52203 L893.15765,623.33 L893.8482,625.17285 L894.5033,627.05054 L895.123,628.9631 L895.7073,630.9104 L896.2562,632.8926 L896.76965,634.90967 L897.24774,636.96155 L897.69037,639.0483 L898.0976,641.16986 L898.4694,643.32623 L898.8058,645.5175 L899.1069,647.7436 L899.6026,652.30023 L899.9567,656.99634 L900.1692,661.8317 L900.24,666.80646 L900.8249,720.6141 L1034.1741,720.6141 L1034.1741,666.80646 L1034.0095,658.47565 L1033.6624,650.2977 L1033.1323,642.2731 L1032.4194,634.4013 L1031.5239,626.68274 L1030.4456,619.1171 L1029.1844,611.7047 L1027.7406,604.44525 L1026.1139,597.339 L1024.3044,590.3857 L1022.31226,583.5855 L1020.1373,576.93835 L1017.77954,570.44434 L1015.239,564.1033 L1012.5158,557.9154 L1009.6097,551.8806 L1008.0899,548.92365 L1006.5278,546.01135 L1004.92334,543.14355 L1003.27673,540.3203 L1001.5878,537.5416 L999.8566,534.80756 L998.08325,532.118 L996.2675,529.4729 L994.40955,526.87244 L992.50934,524.3165 L990.56683,521.8051 L988.58203,519.3383 L986.55493,516.9161 L984.4856,514.5383 L982.3741,512.20514 L980.2203,509.9165 L978.0242,507.67242 L975.7858,505.47293 L973.5051,503.3179 L971.18225,501.2075 L968.81714,499.14163 L966.40967,497.12033 L963.96,495.14355 L961.4681,493.2113 L958.93384,491.3236 L956.35736,489.4805 L953.7385,487.68195 L951.0776,485.9279 L948.37427,484.2184 L945.6287,482.55353 L942.8409,480.93314 L940.0108,479.3573 L937.14136,477.82803 L934.2353,476.34732 L931.2927,474.91516 L928.3135,473.53152 L925.2978,472.1964 L922.24554,470.9099 L919.1567,469.6719 L916.0314,468.48248 L909.67096,466.24927 L903.16437,464.21024 L896.5115,462.3654 L889.71246,460.71475 L882.76715,459.2583 L875.67566,457.99606 L868.4379,456.92798 L861.0541,456.0541 L853.5239,455.37442 L845.8476,454.88895 L838.02496,454.59766 L830.0562,454.50055 L822.0132,454.60107 L814.1141,454.90265 L806.35895,455.40527 L798.7477,456.10895 L791.28033,457.01364 L783.95703,458.11942 L776.7775,459.4262 L769.74207,460.93405 L762.8504,462.64297 L756.1028,464.55292 L749.4991,466.6639 L743.0393,468.97595 L739.8634,470.20737 L736.7234,471.48904 L733.61945,472.821 L730.5515,474.20322 L727.51953,475.63568 L724.52356,477.11838 L721.56354,478.65137 L718.63947,480.23462 L715.7548,481.86557 L712.913,483.54163 L710.1141,485.26282 L707.358,487.0291 L704.6447,488.84055 L701.97424,490.69708 L699.3466,492.59872 L696.7619,494.54553 L694.2199,496.53745 L691.7208,498.57446 L689.2646,500.65665 L686.8512,502.78387 L684.4806,504.9563 L682.15283,507.1738 L679.8679,509.43643 L677.6258,511.74423 L675.4266,514.0971 L673.2702,516.4951 L671.1566,518.93823 L669.0859,521.4265 L667.058,523.95984 L665.07294,526.5383 L663.13074,529.1619 L661.2313,531.8307 L659.3748,534.5445 L657.5611,537.3035 L655.7902,540.1076 L654.0622,542.9568 L652.37695,545.85114 L650.7346,548.7906 L647.57837,554.8049 L646.06714,557.87744 L644.60376,560.9905 L641.8211,567.3384 L639.23035,573.84845 L636.8315,580.5207 L634.6246,587.35516 L632.6095,594.35187 L630.7864,601.51074 L629.15515,608.83185 L627.7158,616.3151 L626.46844,623.96063 L625.4129,631.7684 L624.5493,639.7383 L623.8777,647.87036 L623.3979,656.16473 L623.11005,664.6213 L623.01404,673.24 L623.01404,1115.398 L623.11115,1123.5105 L623.40247,1131.4725 L623.88794,1139.2837 L624.5676,1146.944 L625.44147,1154.4536 L626.5096,1161.8124 L627.7718,1169.0203 L629.2283,1176.0776 L630.8789,1182.984 L632.72375,1189.7396 L634.7628,1196.3446 L636.996,1202.7986 L639.4234,1209.1018 L640.70996,1212.197 L642.045,1215.2544 L643.42865,1218.274 L644.86084,1221.2561 L646.34155,1224.2004 L647.8708,1227.1069 L649.44635,1229.9736 L651.06586,1232.7981 L652.7294,1235.5801 L654.4368,1238.32 L656.1883,1241.0176 L657.9837,1243.6729 L659.8232,1246.2859 L661.70654,1248.8567 L663.6339,1251.3853 L665.6052,1253.8715 L667.6206,1256.3154 L669.6799,1258.7172 L671.78314,1261.0767 L673.9304,1263.3938 L676.12164,1265.6687 L678.3569,1267.9014 L680.63605,1270.0917 L682.9592,1272.2399 L685.3264,1274.3457 L687.73755,1276.4093 L690.1927,1278.4307 L692.6918,1280.4097 L695.23486,1282.3464 L697.8219,1284.2411 L700.45294,1286.0933 L703.128,1287.9033 L705.847,1289.671 L708.61,1291.3965 L711.4169,1293.0797 L714.2678,1294.7207 L717.1627,1296.3193 L720.1016,1297.8757 L723.0808,1299.387 L726.0965,1300.8502 L732.2376,1303.6329 L738.5249,1306.2236 L744.9584,1308.6226 L751.5381,1310.8295 L758.26404,1312.8445 L765.1362,1314.6677 L772.1546,1316.299 L779.3192,1317.7383 L786.63,1318.9856 L794.08704,1320.0411 L801.6903,1320.9047 L809.4397,1321.5764 L817.3354,1322.0562 L825.37726,1322.3441 L833.5654,1322.44 L841.74896,1322.3395 L849.7771,1322.0378 L857.64996,1321.5353 L865.36743,1320.8317 L872.92957,1319.9269 L880.33636,1318.8212 L887.5877,1317.5143 L894.6838,1316.0065 L901.6245,1314.2975 L908.40985,1312.3876 L915.03986,1310.2766 L918.2966,1309.1458 L921.51447,1307.9646 L924.69354,1306.7332 L927.83374,1305.4515 L930.9352,1304.1196 L933.9977,1302.7373 L937.0214,1301.3049 L940.0062,1299.8221 L942.9523,1298.2893 L945.85944,1296.7059 L948.7261,1295.0757 L951.5505,1293.4012 L954.3326,1291.683 L957.07245,1289.9207 L959.77,1288.1144 L962.4253,1286.264 L965.0383,1284.3699 L967.60913,1282.4315 L970.13763,1280.4495 L972.6239,1278.4232 L975.0679,1276.353 L977.4696,1274.2389 L979.829,1272.0808 L982.14624,1269.8787 L984.42114,1267.6327 L986.6538,1265.3425 L988.8442,1263.0085 L990.9924,1260.6306 L993.0982,1258.2085 L995.16174,1255.7426 L997.1831,1253.2327 L999.16205,1250.6787 L1001.09894,1248.0807 L1002.9934,1245.4388 L1004.84564,1242.753 L1006.65576,1240.0232 L1008.4234,1237.2494 L1010.14886,1234.4315 L1011.83215,1231.5697 L1013.473,1228.6641 L1016.6282,1222.7206 L1018.1394,1219.6858 L1019.6027,1216.6127 L1022.3854,1210.3516 L1024.9761,1203.9375 L1027.375,1197.3704 L1029.5819,1190.65 L1031.597,1183.7769 L1033.42,1176.7504 L1035.0513,1169.5709 L1036.4906,1162.2384 L1037.738,1154.7528 L1038.7936,1147.1143 L1039.6571,1139.3224 L1040.3289,1131.3777 L1040.8086,1123.2798 L1041.0964,1115.0288 L1041.1924,1106.6249 z"/>
    <path d="M475.86206,463.27353 L475.86206,1313.6671 L603.94745,1313.6671 L603.94745,463.27353 z"/>
    <path d="M1194.7778,834.0779 L1194.7778,463.27353 L1066.6925,463.27353 L1066.1077,1313.6671 L1194.7778,1313.6671 L1194.7778,955.14484 L1336.5619,955.14484 L1336.3152,1313.6671 L1464.9856,1313.6671 L1464.9856,463.27353 L1336.9,463.27353 L1336.645,834.0779 z"/>
  </g>

  <!-- FIVE = BEYAZ DOLGU + BEYAZ BORDER -->
  <g id="FIVE"
     fill="#FFFFFF"
     stroke="#FFFFFF"
     stroke-width="22"
     stroke-linecap="round"
     stroke-linejoin="round">
    <path d="M3627.7222,1313.6671 L3627.7222,1140.898 L3287.097,1140.898 L3287.097,808.4608 L3586.7817,808.4608 L3586.7817,636.5105 L3287.097,635.88745 L3287.097,295.88522 L3627.7222,295.88522 L3627.7222,123.116135 L3107.7773,123.116135 L3106.9585,1313.6671 z"/>
    <path d="M2797.448,1313.6671 L3026.715,123.116135 L2837.5696,123.116135 L2701.6472,991.0556 L2565.7244,123.116135 L2377.398,123.116135 L2606.665,1313.6671 z"/>
    <path d="M2126.0232,123.116135 L2126.0232,1313.6671 L2305.3428,1313.6671 L2305.3428,123.116135 z"/>
    <path d="M1516.8279,123.116135 L1516.0092,1313.6671 L1696.1475,1313.6671 L1696.1475,818.2865 L1996.6511,818.2865 L1996.6511,647.9739 L1696.1475,647.34906 L1696.1475,294.2476 L2037.5916,294.2476 L2037.5916,123.116135 z"/>
  </g>
</svg>