<svg viewBox="0 0 200 200" xmlns="http://www.w3.org/2000/svg">
  <!-- Plate -->
  <ellipse cx="100" cy="160" rx="85" ry="25" fill="#E8E8E8"/>
  <ellipse cx="100" cy="155" rx="80" ry="22" fill="#FFFFFF"/>
  <ellipse cx="100" cy="150" rx="70" ry="18" fill="#F5F5F5"/>
  
  <!-- Tomato sauce base -->
  <ellipse cx="100" cy="120" rx="60" ry="35" fill="#C41E3A"/>
  <ellipse cx="100" cy="115" rx="55" ry="30" fill="#DC3545"/>
  
  <!-- Pasta noodles -->
  <rect x="60" y="100" width="25" height="8" rx="3" fill="#F4D03F" transform="rotate(-15 72 104)"/>
  <rect x="85" y="95" width="25" height="8" rx="3" fill="#F5D742" transform="rotate(10 97 99)"/>
  <rect x="110" y="105" width="25" height="8" rx="3" fill="#F4D03F" transform="rotate(-5 122 109)"/>
  <rect x="70" y="115" width="25" height="8" rx="3" fill="#F5D742" transform="rotate(20 82 119)"/>
  <rect x="100" y="120" width="25" height="8" rx="3" fill="#F4D03F" transform="rotate(-10 112 124)"/>
  <rect x="55" y="125" width="22" height="7" rx="3" fill="#F5D742" transform="rotate(5 66 128)"/>
  
  <!-- Sosis slices (sausage) -->
  <ellipse cx="75" cy="105" rx="10" ry="6" fill="#CD5C5C"/>
  <ellipse cx="75" cy="105" rx="6" ry="4" fill="#E07070"/>
  <ellipse cx="120" cy="100" rx="10" ry="6" fill="#CD5C5C"/>
  <ellipse cx="120" cy="100" rx="6" ry="4" fill="#E07070"/>
  <ellipse cx="95" cy="125" rx="10" ry="6" fill="#CD5C5C"/>
  <ellipse cx="95" cy="125" rx="6" ry="4" fill="#E07070"/>
  <ellipse cx="130" cy="115" rx="9" ry="5" fill="#CD5C5C"/>
  <ellipse cx="130" cy="115" rx="5" ry="3" fill="#E07070"/>
  <ellipse cx="65" cy="120" rx="9" ry="5" fill="#CD5C5C"/>
  <ellipse cx="65" cy="120" rx="5" ry="3" fill="#E07070"/>
  
  <!-- Köz biber (roasted pepper) strips -->
  <rect x="80" y="90" width="20" height="5" rx="2" fill="#8B0000" transform="rotate(15 90 92)"/>
  <rect x="105" y="115" width="18" height="5" rx="2" fill="#8B0000" transform="rotate(-10 114 117)"/>
  <rect x="70" y="130" width="16" height="4" rx="2" fill="#8B0000" transform="rotate(5 78 132)"/>
  
  <!-- Spicy indicators -->
  <circle cx="85" cy="95" r="3" fill="#FF4500" opacity="0.6"/>
  <circle cx="115" cy="110" r="2.5" fill="#FF4500" opacity="0.6"/>
  <circle cx="100" cy="130" r="2" fill="#FF4500" opacity="0.6"/>
  
  <!-- Steam -->
  <path d="M85,65 Q80,50 85,40" stroke="#DDD" stroke-width="2" fill="none" opacity="0.5"/>
  <path d="M100,60 Q95,45 100,35" stroke="#DDD" stroke-width="2" fill="none" opacity="0.5"/>
  <path d="M115,65 Q120,50 115,40" stroke="#DDD" stroke-width="2" fill="none" opacity="0.5"/>
</svg>
