<svg viewBox="0 0 200 200" xmlns="http://www.w3.org/2000/svg">
  <!-- Plate -->
  <ellipse cx="100" cy="160" rx="85" ry="25" fill="#E8E8E8"/>
  <ellipse cx="100" cy="155" rx="80" ry="22" fill="#FFFFFF"/>
  <ellipse cx="100" cy="150" rx="70" ry="18" fill="#F5F5F5"/>
  
  <!-- Special sauce base (brown-ish) -->
  <ellipse cx="100" cy="120" rx="60" ry="35" fill="#8B4513"/>
  <ellipse cx="100" cy="115" rx="55" ry="30" fill="#A0522D"/>
  
  <!-- Pasta noodles (tagliatelle style) -->
  <path d="M50,95 Q70,85 90,95 T130,95 T160,90" stroke="#F4D03F" stroke-width="5" fill="none"/>
  <path d="M45,107 Q65,97 85,107 T125,107 T155,102" stroke="#F5D742" stroke-width="5" fill="none"/>
  <path d="M55,119 Q75,109 95,119 T135,119 T160,114" stroke="#F4D03F" stroke-width="5" fill="none"/>
  <path d="M50,131 Q70,121 90,131 T130,131" stroke="#F5D742" stroke-width="5" fill="none"/>
  
  <!-- Füme et (smoked meat) strips -->
  <rect x="60" y="95" width="22" height="7" rx="2" fill="#4A2020" transform="rotate(-15 71 98)"/>
  <rect x="100" y="90" width="25" height="7" rx="2" fill="#4A2020" transform="rotate(10 112 93)"/>
  <rect x="70" y="115" width="20" height="7" rx="2" fill="#4A2020" transform="rotate(5 80 118)"/>
  <rect x="115" y="120" width="22" height="7" rx="2" fill="#4A2020" transform="rotate(-10 126 123)"/>
  
  <!-- Mushroom slices -->
  <g transform="translate(80, 100)">
    <ellipse cx="0" cy="0" rx="12" ry="8" fill="#D2B48C"/>
    <path d="M-10,0 Q0,-12 10,0" fill="#F5DEB3" stroke="#C4A76C" stroke-width="1"/>
  </g>
  <g transform="translate(125, 105)">
    <ellipse cx="0" cy="0" rx="10" ry="7" fill="#D2B48C"/>
    <path d="M-8,0 Q0,-10 8,0" fill="#F5DEB3" stroke="#C4A76C" stroke-width="1"/>
  </g>
  <g transform="translate(95, 125)">
    <ellipse cx="0" cy="0" rx="11" ry="7" fill="#D2B48C"/>
    <path d="M-9,0 Q0,-11 9,0" fill="#F5DEB3" stroke="#C4A76C" stroke-width="1"/>
  </g>
  <g transform="translate(55, 110)">
    <ellipse cx="0" cy="0" rx="9" ry="6" fill="#D2B48C"/>
    <path d="M-7,0 Q0,-8 7,0" fill="#F5DEB3" stroke="#C4A76C" stroke-width="1"/>
  </g>
  
  <!-- Parsley garnish -->
  <circle cx="100" cy="85" r="3" fill="#228B22"/>
  <circle cx="108" cy="88" r="2.5" fill="#2E8B2E"/>
  
  <!-- Steam -->
  <path d="M85,60 Q80,45 85,35" stroke="#DDD" stroke-width="2" fill="none" opacity="0.5"/>
  <path d="M100,55 Q95,40 100,30" stroke="#DDD" stroke-width="2" fill="none" opacity="0.5"/>
  <path d="M115,60 Q120,45 115,35" stroke="#DDD" stroke-width="2" fill="none" opacity="0.5"/>
</svg>
