<svg viewBox="0 0 200 200" xmlns="http://www.w3.org/2000/svg">
  <!-- Pizza base -->
  <circle cx="100" cy="100" r="95" fill="#D4A574"/>
  <circle cx="100" cy="100" r="88" fill="#F5DEB3"/>
  <!-- Tomato sauce -->
  <circle cx="100" cy="100" r="82" fill="#C41E3A"/>
  <!-- Mozzarella -->
  <circle cx="100" cy="100" r="78" fill="#FFD93D" opacity="0.9"/>
  <!-- Cheese bubbles -->
  <circle cx="60" cy="70" r="10" fill="#FFF8DC" opacity="0.7"/>
  <circle cx="130" cy="60" r="12" fill="#FFF8DC" opacity="0.6"/>
  <circle cx="90" cy="130" r="9" fill="#FFF8DC" opacity="0.7"/>
  <circle cx="140" cy="120" r="11" fill="#FFF8DC" opacity="0.5"/>
  <circle cx="70" cy="110" r="8" fill="#FFF8DC" opacity="0.6"/>
  <!-- Fresh basil leaves -->
  <ellipse cx="55" cy="85" rx="12" ry="7" fill="#228B22" transform="rotate(-30 55 85)"/>
  <ellipse cx="100" cy="65" rx="14" ry="8" fill="#2E8B2E" transform="rotate(15 100 65)"/>
  <ellipse cx="145" cy="95" rx="12" ry="7" fill="#228B22" transform="rotate(-20 145 95)"/>
  <ellipse cx="80" cy="135" rx="13" ry="7" fill="#2E8B2E" transform="rotate(25 80 135)"/>
  <ellipse cx="120" cy="120" rx="11" ry="6" fill="#228B22" transform="rotate(-10 120 120)"/>
  <ellipse cx="95" cy="100" rx="10" ry="6" fill="#2E8B2E" transform="rotate(5 95 100)"/>
  <!-- Tomato slices -->
  <circle cx="70" cy="75" r="8" fill="#E63946" opacity="0.4"/>
  <circle cx="130" cy="130" r="7" fill="#E63946" opacity="0.4"/>
</svg>
