<svg viewBox="0 0 200 200" xmlns="http://www.w3.org/2000/svg">
  <!-- Pizza base -->
  <circle cx="100" cy="100" r="95" fill="#D4A574"/>
  <circle cx="100" cy="100" r="88" fill="#F5DEB3"/>
  <!-- Tomato sauce -->
  <circle cx="100" cy="100" r="82" fill="#C41E3A"/>
  <!-- Mozzarella -->
  <circle cx="100" cy="100" r="78" fill="#FFD93D" opacity="0.85"/>
  <!-- Kavurma pieces (roasted meat - brown chunks) -->
  <ellipse cx="65" cy="75" rx="14" ry="10" fill="#5D3A1A" transform="rotate(-15 65 75)"/>
  <ellipse cx="65" cy="75" rx="10" ry="7" fill="#7B4D2B" transform="rotate(-15 65 75)"/>
  <ellipse cx="120" cy="65" rx="12" ry="9" fill="#5D3A1A" transform="rotate(20 120 65)"/>
  <ellipse cx="120" cy="65" rx="9" ry="6" fill="#7B4D2B" transform="rotate(20 120 65)"/>
  <ellipse cx="140" cy="105" rx="13" ry="9" fill="#5D3A1A" transform="rotate(-10 140 105)"/>
  <ellipse cx="140" cy="105" rx="9" ry="6" fill="#7B4D2B" transform="rotate(-10 140 105)"/>
  <ellipse cx="70" cy="125" rx="12" ry="8" fill="#5D3A1A" transform="rotate(25 70 125)"/>
  <ellipse cx="70" cy="125" rx="8" ry="5" fill="#7B4D2B" transform="rotate(25 70 125)"/>
  <ellipse cx="105" cy="100" rx="14" ry="10" fill="#5D3A1A" transform="rotate(5 105 100)"/>
  <ellipse cx="105" cy="100" rx="10" ry="7" fill="#7B4D2B" transform="rotate(5 105 100)"/>
  <!-- Corn kernels (yellow) -->
  <ellipse cx="80" cy="60" rx="4" ry="5" fill="#FFD700"/>
  <ellipse cx="90" cy="65" rx="4" ry="5" fill="#FFD700"/>
  <ellipse cx="85" cy="72" rx="4" ry="5" fill="#FFD700"/>
  <ellipse cx="145" cy="85" rx="4" ry="5" fill="#FFD700"/>
  <ellipse cx="155" cy="90" rx="4" ry="5" fill="#FFD700"/>
  <ellipse cx="150" cy="80" rx="4" ry="5" fill="#FFD700"/>
  <ellipse cx="55" cy="95" rx="4" ry="5" fill="#FFD700"/>
  <ellipse cx="60" cy="88" rx="4" ry="5" fill="#FFD700"/>
  <ellipse cx="50" cy="100" rx="4" ry="5" fill="#FFD700"/>
  <ellipse cx="115" cy="130" rx="4" ry="5" fill="#FFD700"/>
  <ellipse cx="125" cy="125" rx="4" ry="5" fill="#FFD700"/>
  <ellipse cx="120" cy="138" rx="4" ry="5" fill="#FFD700"/>
  <ellipse cx="90" cy="120" rx="4" ry="5" fill="#FFD700"/>
  <ellipse cx="95" cy="112" rx="4" ry="5" fill="#FFD700"/>
</svg>
