<svg viewBox="0 0 200 150" xmlns="http://www.w3.org/2000/svg">
  <!-- Shadow -->
  <ellipse cx="100" cy="140" rx="80" ry="8" fill="rgba(0,0,0,0.1)"/>
  
  <!-- Bottom ciabatta bread -->
  <path d="M20,110 Q100,125 180,110 L175,100 Q100,115 25,100 Z" fill="#D4A574"/>
  <path d="M25,100 Q100,115 175,100 L170,95 Q100,108 30,95 Z" fill="#E8C9A0"/>
  
  <!-- Olive tapenade spread -->
  <path d="M35,92 Q100,96 165,92" stroke="#2F4F4F" stroke-width="4" fill="none" opacity="0.8"/>
  
  <!-- Lettuce leaves -->
  <path d="M30,88 Q50,80 70,88 Q55,85 30,88 Z" fill="#90EE90"/>
  <path d="M65,86 Q90,78 115,86 Q95,82 65,86 Z" fill="#98FB98"/>
  <path d="M110,88 Q135,80 160,88 Q140,84 110,88 Z" fill="#90EE90"/>
  
  <!-- Tomato slices -->
  <circle cx="55" cy="75" r="11" fill="#DC3545"/>
  <circle cx="55" cy="75" r="7" fill="#E63946"/>
  <circle cx="100" cy="73" r="12" fill="#DC3545"/>
  <circle cx="100" cy="73" r="8" fill="#E63946"/>
  <circle cx="145" cy="75" r="11" fill="#DC3545"/>
  <circle cx="145" cy="75" r="7" fill="#E63946"/>
  
  <!-- Labne cream spread -->
  <ellipse cx="80" cy="65" rx="20" ry="5" fill="#FFFAFA"/>
  <ellipse cx="130" cy="65" rx="18" ry="4" fill="#FFFAFA"/>
  
  <!-- Smoked turkey slices (hindi füme) -->
  <path d="M35,55 Q55,50 75,57" fill="#D2B48C"/>
  <path d="M35,55 L35,60 Q55,67 75,60 L75,57 Q55,50 35,55 Z" fill="#DEB887"/>
  <path d="M85,53 Q105,48 125,55" fill="#D2B48C"/>
  <path d="M85,53 L85,58 Q105,65 125,58 L125,55 Q105,48 85,53 Z" fill="#DEB887"/>
  <path d="M135,55 Q155,50 175,57" fill="#D2B48C"/>
  <path d="M135,55 L135,60 Q155,67 175,60 L175,57 Q155,50 135,55 Z" fill="#DEB887"/>
  
  <!-- Top ciabatta bread -->
  <path d="M20,48 Q100,30 180,48 L180,43 Q100,22 20,43 Z" fill="#C9956C"/>
  <path d="M20,43 Q100,22 180,43 L175,39 Q100,20 25,39 Z" fill="#D4A574"/>
  <path d="M25,39 Q100,20 175,39 L170,36 Q100,18 30,36 Z" fill="#E8C9A0"/>
  
  <!-- Flour spots -->
  <circle cx="60" cy="32" r="2" fill="#F5DEB3" opacity="0.6"/>
  <circle cx="100" cy="28" r="2" fill="#F5DEB3" opacity="0.6"/>
  <circle cx="140" cy="32" r="1.5" fill="#F5DEB3" opacity="0.6"/>
</svg>
