<svg viewBox="0 0 200 150" xmlns="http://www.w3.org/2000/svg">
  <!-- Shadow -->
  <ellipse cx="100" cy="140" rx="80" ry="8" fill="rgba(0,0,0,0.1)"/>
  
  <!-- Bottom schiacciatta bread -->
  <path d="M15,115 Q100,125 185,115 L182,108 Q100,118 18,108 Z" fill="#B8860B"/>
  <path d="M18,108 Q100,118 182,108 L180,103 Q100,112 20,103 Z" fill="#D4A574"/>
  
  <!-- Garlic yogurt/aioli spread -->
  <path d="M35,98 Q100,102 165,98" stroke="#FFFAFA" stroke-width="4" fill="none"/>
  <!-- Garlic bits -->
  <circle cx="50" cy="97" r="2" fill="#F5F5DC"/>
  <circle cx="80" cy="96" r="1.5" fill="#F5F5DC"/>
  <circle cx="120" cy="97" r="2" fill="#F5F5DC"/>
  <circle cx="150" cy="96" r="1.5" fill="#F5F5DC"/>
  
  <!-- Caramelized onion -->
  <ellipse cx="55" cy="90" rx="14" ry="4" fill="#8B4513" opacity="0.8"/>
  <ellipse cx="100" cy="88" rx="16" ry="5" fill="#8B4513" opacity="0.8"/>
  <ellipse cx="145" cy="90" rx="14" ry="4" fill="#8B4513" opacity="0.8"/>
  
  <!-- Lettuce leaves -->
  <path d="M30,82 Q50,75 70,82 Q55,78 30,82 Z" fill="#90EE90"/>
  <path d="M70,80 Q95,73 120,80 Q100,76 70,80 Z" fill="#98FB98"/>
  <path d="M115,82 Q140,75 165,82 Q145,78 115,82 Z" fill="#90EE90"/>
  
  <!-- Kaşar cheese -->
  <rect x="40" y="68" width="35" height="8" rx="2" fill="#FFD700"/>
  <rect x="42" y="70" width="31" height="4" rx="1" fill="#FFEC8B"/>
  <rect x="90" y="66" width="40" height="9" rx="2" fill="#FFD700"/>
  <rect x="92" y="68" width="36" height="5" rx="1" fill="#FFEC8B"/>
  <rect x="140" y="68" width="35" height="8" rx="2" fill="#FFD700"/>
  <rect x="142" y="70" width="31" height="4" rx="1" fill="#FFEC8B"/>
  
  <!-- Smoked turkey slices (hindi füme) -->
  <path d="M30,58 Q50,53 70,60" fill="#D2B48C"/>
  <path d="M30,58 L30,63 Q50,70 70,63 L70,60 Q50,53 30,58 Z" fill="#DEB887"/>
  <path d="M80,55 Q100,50 120,57" fill="#D2B48C"/>
  <path d="M80,55 L80,60 Q100,67 120,60 L120,57 Q100,50 80,55 Z" fill="#DEB887"/>
  <path d="M130,58 Q150,53 170,60" fill="#D2B48C"/>
  <path d="M130,58 L130,63 Q150,70 170,63 L170,60 Q150,53 130,58 Z" fill="#DEB887"/>
  
  <!-- Top schiacciatta bread -->
  <path d="M15,50 Q100,30 185,50 L185,45 Q100,23 15,45 Z" fill="#A67C52"/>
  <path d="M15,45 Q100,23 185,45 L182,40 Q100,20 18,40 Z" fill="#B8860B"/>
  <path d="M18,40 Q100,20 182,40 L180,36 Q100,18 20,36 Z" fill="#D4A574"/>
  
  <!-- Grill marks -->
  <line x1="45" y1="33" x2="55" y2="36" stroke="#8B4513" stroke-width="2" opacity="0.3"/>
  <line x1="90" y1="28" x2="100" y2="31" stroke="#8B4513" stroke-width="2" opacity="0.3"/>
  <line x1="135" y1="28" x2="145" y2="31" stroke="#8B4513" stroke-width="2" opacity="0.3"/>
</svg>
