<svg viewBox="0 0 200 150" xmlns="http://www.w3.org/2000/svg">
  <!-- Shadow -->
  <ellipse cx="100" cy="140" rx="80" ry="8" fill="rgba(0,0,0,0.1)"/>
  
  <!-- Bottom ciabatta bread -->
  <path d="M20,110 Q100,125 180,110 L175,100 Q100,115 25,100 Z" fill="#D4A574"/>
  <path d="M25,100 Q100,115 175,100 L170,95 Q100,108 30,95 Z" fill="#E8C9A0"/>
  
  <!-- Olive tapenade spread -->
  <path d="M35,92 Q100,96 165,92" stroke="#2F4F4F" stroke-width="4" fill="none" opacity="0.8"/>
  
  <!-- Fresh basil leaves -->
  <ellipse cx="45" cy="84" rx="12" ry="6" fill="#228B22" transform="rotate(-20 45 84)"/>
  <ellipse cx="80" cy="82" rx="14" ry="7" fill="#2E8B2E" transform="rotate(15 80 82)"/>
  <ellipse cx="120" cy="83" rx="13" ry="6" fill="#228B22" transform="rotate(-10 120 83)"/>
  <ellipse cx="155" cy="84" rx="12" ry="6" fill="#2E8B2E" transform="rotate(10 155 84)"/>
  
  <!-- Tomato slices -->
  <circle cx="55" cy="72" r="13" fill="#DC3545"/>
  <circle cx="55" cy="72" r="9" fill="#E63946"/>
  <circle cx="100" cy="70" r="14" fill="#DC3545"/>
  <circle cx="100" cy="70" r="10" fill="#E63946"/>
  <circle cx="145" cy="72" r="13" fill="#DC3545"/>
  <circle cx="145" cy="72" r="9" fill="#E63946"/>
  
  <!-- Mozzarella slices -->
  <ellipse cx="50" cy="58" rx="18" ry="8" fill="#FFF8DC"/>
  <ellipse cx="50" cy="58" rx="14" ry="5" fill="#FFFFF0"/>
  <ellipse cx="100" cy="55" rx="20" ry="9" fill="#FFF8DC"/>
  <ellipse cx="100" cy="55" rx="16" ry="6" fill="#FFFFF0"/>
  <ellipse cx="150" cy="58" rx="18" ry="8" fill="#FFF8DC"/>
  <ellipse cx="150" cy="58" rx="14" ry="5" fill="#FFFFF0"/>
  
  <!-- Top ciabatta bread -->
  <path d="M20,48 Q100,28 180,48 L180,43 Q100,20 20,43 Z" fill="#C9956C"/>
  <path d="M20,43 Q100,20 180,43 L175,39 Q100,18 25,39 Z" fill="#D4A574"/>
  <path d="M25,39 Q100,18 175,39 L170,36 Q100,16 30,36 Z" fill="#E8C9A0"/>
  
  <!-- Italian flag colors decoration -->
  <rect x="90" y="25" width="6" height="12" fill="#009246"/>
  <rect x="96" y="25" width="6" height="12" fill="#FFFFFF"/>
  <rect x="102" y="25" width="6" height="12" fill="#CE2B37"/>
  
  <!-- Flour spots -->
  <circle cx="55" cy="32" r="2" fill="#F5DEB3" opacity="0.6"/>
  <circle cx="145" cy="32" r="2" fill="#F5DEB3" opacity="0.6"/>
</svg>
