<svg viewBox="0 0 200 150" xmlns="http://www.w3.org/2000/svg">
  <!-- Shadow -->
  <ellipse cx="100" cy="140" rx="80" ry="8" fill="rgba(0,0,0,0.1)"/>
  
  <!-- Bottom ciabatta bread -->
  <path d="M20,110 Q100,125 180,110 L175,100 Q100,115 25,100 Z" fill="#D4A574"/>
  <path d="M25,100 Q100,115 175,100 L170,95 Q100,108 30,95 Z" fill="#E8C9A0"/>
  
  <!-- Pesto sauce drizzle -->
  <path d="M35,95 Q100,100 165,95" stroke="#4A7023" stroke-width="3" fill="none" opacity="0.7"/>
  
  <!-- Roka (arugula) leaves -->
  <ellipse cx="50" cy="88" rx="15" ry="6" fill="#228B22" transform="rotate(-15 50 88)"/>
  <ellipse cx="80" cy="85" rx="14" ry="5" fill="#2E8B2E" transform="rotate(10 80 85)"/>
  <ellipse cx="120" cy="87" rx="15" ry="6" fill="#228B22" transform="rotate(-5 120 87)"/>
  <ellipse cx="150" cy="86" rx="13" ry="5" fill="#2E8B2E" transform="rotate(15 150 86)"/>
  
  <!-- Tomato slices -->
  <circle cx="60" cy="78" r="12" fill="#DC3545"/>
  <circle cx="60" cy="78" r="8" fill="#E63946"/>
  <circle cx="100" cy="75" r="14" fill="#DC3545"/>
  <circle cx="100" cy="75" r="10" fill="#E63946"/>
  <circle cx="140" cy="78" r="12" fill="#DC3545"/>
  <circle cx="140" cy="78" r="8" fill="#E63946"/>
  
  <!-- Mozzarella slices -->
  <ellipse cx="55" cy="65" rx="18" ry="8" fill="#FFF8DC"/>
  <ellipse cx="55" cy="65" rx="14" ry="5" fill="#FFFFF0"/>
  <ellipse cx="100" cy="62" rx="20" ry="9" fill="#FFF8DC"/>
  <ellipse cx="100" cy="62" rx="16" ry="6" fill="#FFFFF0"/>
  <ellipse cx="145" cy="65" rx="18" ry="8" fill="#FFF8DC"/>
  <ellipse cx="145" cy="65" rx="14" ry="5" fill="#FFFFF0"/>
  
  <!-- Top ciabatta bread -->
  <path d="M20,55 Q100,35 180,55 L180,50 Q100,25 20,50 Z" fill="#C9956C"/>
  <path d="M20,50 Q100,25 180,50 L175,45 Q100,22 25,45 Z" fill="#D4A574"/>
  <path d="M25,45 Q100,22 175,45 L170,42 Q100,20 30,42 Z" fill="#E8C9A0"/>
  
  <!-- Bread texture/flour spots -->
  <circle cx="50" cy="40" r="2" fill="#F5DEB3" opacity="0.6"/>
  <circle cx="90" cy="35" r="2.5" fill="#F5DEB3" opacity="0.6"/>
  <circle cx="130" cy="38" r="2" fill="#F5DEB3" opacity="0.6"/>
  <circle cx="160" cy="42" r="1.5" fill="#F5DEB3" opacity="0.6"/>
</svg>
