<svg viewBox="0 0 200 150" xmlns="http://www.w3.org/2000/svg">
  <!-- Shadow -->
  <ellipse cx="100" cy="140" rx="80" ry="8" fill="rgba(0,0,0,0.1)"/>
  
  <!-- Bottom ciabatta bread -->
  <path d="M20,110 Q100,125 180,110 L175,100 Q100,115 25,100 Z" fill="#D4A574"/>
  <path d="M25,100 Q100,115 175,100 L170,95 Q100,108 30,95 Z" fill="#E8C9A0"/>
  
  <!-- Garlic yogurt/aioli spread -->
  <path d="M35,92 Q100,97 165,92" stroke="#FFFAFA" stroke-width="4" fill="none"/>
  
  <!-- Arugula leaves -->
  <ellipse cx="45" cy="85" rx="14" ry="5" fill="#228B22" transform="rotate(-15 45 85)"/>
  <ellipse cx="80" cy="83" rx="15" ry="6" fill="#2E8B2E" transform="rotate(8 80 83)"/>
  <ellipse cx="120" cy="84" rx="14" ry="5" fill="#228B22" transform="rotate(-10 120 84)"/>
  <ellipse cx="155" cy="85" rx="13" ry="5" fill="#2E8B2E" transform="rotate(5 155 85)"/>
  
  <!-- Tomato slices -->
  <circle cx="60" cy="75" r="12" fill="#DC3545"/>
  <circle cx="60" cy="75" r="8" fill="#E63946"/>
  <circle cx="140" cy="75" r="12" fill="#DC3545"/>
  <circle cx="140" cy="75" r="8" fill="#E63946"/>
  
  <!-- Roasted eggplant -->
  <ellipse cx="50" cy="65" rx="16" ry="5" fill="#4B0082" opacity="0.8"/>
  <ellipse cx="100" cy="63" rx="20" ry="6" fill="#4B0082" opacity="0.8"/>
  <ellipse cx="150" cy="65" rx="16" ry="5" fill="#4B0082" opacity="0.8"/>
  
  <!-- Roasted red peppers -->
  <rect x="35" y="55" width="28" height="5" rx="2" fill="#8B0000" transform="rotate(-5 49 57)"/>
  <rect x="85" y="53" width="30" height="6" rx="2" fill="#8B0000" transform="rotate(3 100 56)"/>
  <rect x="135" y="55" width="28" height="5" rx="2" fill="#8B0000" transform="rotate(-3 149 57)"/>
  
  <!-- Top ciabatta bread -->
  <path d="M20,48 Q100,28 180,48 L180,43 Q100,20 20,43 Z" fill="#C9956C"/>
  <path d="M20,43 Q100,20 180,43 L175,39 Q100,18 25,39 Z" fill="#D4A574"/>
  <path d="M25,39 Q100,18 175,39 L170,36 Q100,16 30,36 Z" fill="#E8C9A0"/>
  
  <!-- Small leaf decoration on top -->
  <ellipse cx="100" cy="32" rx="8" ry="4" fill="#228B22" transform="rotate(15 100 32)"/>
  
  <!-- Flour spots -->
  <circle cx="55" cy="35" r="2" fill="#F5DEB3" opacity="0.6"/>
  <circle cx="145" cy="35" r="2" fill="#F5DEB3" opacity="0.6"/>
</svg>
