<svg viewBox="0 0 200 150" xmlns="http://www.w3.org/2000/svg">
  <!-- Shadow -->
  <ellipse cx="100" cy="140" rx="80" ry="8" fill="rgba(0,0,0,0.1)"/>
  
  <!-- Bottom ciabatta bread -->
  <path d="M20,110 Q100,125 180,110 L175,100 Q100,115 25,100 Z" fill="#D4A574"/>
  <path d="M25,100 Q100,115 175,100 L170,95 Q100,108 30,95 Z" fill="#E8C9A0"/>
  
  <!-- Sour chilli sauce drizzle -->
  <path d="M35,92 Q60,87 85,92 Q110,87 135,92 Q155,88 165,92" stroke="#8B0000" stroke-width="3" fill="none"/>
  
  <!-- Green peppers -->
  <ellipse cx="50" cy="84" rx="12" ry="5" fill="#228B22" transform="rotate(-10 50 84)"/>
  <ellipse cx="95" cy="82" rx="14" ry="6" fill="#2E8B2E" transform="rotate(5 95 82)"/>
  <ellipse cx="145" cy="84" rx="12" ry="5" fill="#228B22" transform="rotate(-8 145 84)"/>
  
  <!-- Cornichon slices -->
  <ellipse cx="65" cy="76" rx="9" ry="4" fill="#6B8E23"/>
  <ellipse cx="110" cy="74" rx="10" ry="5" fill="#556B2F"/>
  <ellipse cx="155" cy="76" rx="9" ry="4" fill="#6B8E23"/>
  
  <!-- Jalapeno slices (lots of them - bomb!) -->
  <circle cx="40" cy="68" r="7" fill="#4A7023"/>
  <circle cx="40" cy="68" r="4" fill="#6B8E23"/>
  <circle cx="60" cy="65" r="8" fill="#4A7023"/>
  <circle cx="60" cy="65" r="4.5" fill="#6B8E23"/>
  <circle cx="85" cy="66" r="7" fill="#4A7023"/>
  <circle cx="85" cy="66" r="4" fill="#6B8E23"/>
  <circle cx="110" cy="65" r="8" fill="#4A7023"/>
  <circle cx="110" cy="65" r="4.5" fill="#6B8E23"/>
  <circle cx="135" cy="66" r="7" fill="#4A7023"/>
  <circle cx="135" cy="66" r="4" fill="#6B8E23"/>
  <circle cx="160" cy="68" r="7" fill="#4A7023"/>
  <circle cx="160" cy="68" r="4" fill="#6B8E23"/>
  
  <!-- Labne cream layer -->
  <ellipse cx="100" cy="55" rx="65" ry="8" fill="#FFFAFA"/>
  <ellipse cx="60" cy="54" rx="20" ry="5" fill="#FFFFFF" opacity="0.8"/>
  <ellipse cx="140" cy="54" rx="20" ry="5" fill="#FFFFFF" opacity="0.8"/>
  
  <!-- Top ciabatta bread -->
  <path d="M20,48 Q100,28 180,48 L180,43 Q100,20 20,43 Z" fill="#C9956C"/>
  <path d="M20,43 Q100,20 180,43 L175,39 Q100,18 25,39 Z" fill="#D4A574"/>
  <path d="M25,39 Q100,18 175,39 L170,36 Q100,16 30,36 Z" fill="#E8C9A0"/>
  
  <!-- Fire icons (bomb!) -->
  <path d="M170,18 Q173,12 176,18 Q179,8 182,18 Q176,24 170,18 Z" fill="#FF4500"/>
  <path d="M180,22 Q182,18 184,22 Q186,14 188,22 Q184,26 180,22 Z" fill="#FF6347"/>
  
  <!-- Flour spots -->
  <circle cx="55" cy="32" r="2" fill="#F5DEB3" opacity="0.6"/>
  <circle cx="100" cy="28" r="2" fill="#F5DEB3" opacity="0.6"/>
  <circle cx="145" cy="32" r="2" fill="#F5DEB3" opacity="0.6"/>
</svg>
