<svg viewBox="0 0 200 150" xmlns="http://www.w3.org/2000/svg">
  <!-- Shadow -->
  <ellipse cx="100" cy="140" rx="80" ry="8" fill="rgba(0,0,0,0.1)"/>
  
  <!-- Bottom ciabatta bread -->
  <path d="M20,110 Q100,125 180,110 L175,100 Q100,115 25,100 Z" fill="#D4A574"/>
  <path d="M25,100 Q100,115 175,100 L170,95 Q100,108 30,95 Z" fill="#E8C9A0"/>
  
  <!-- Spicy mayo drizzle -->
  <path d="M35,92 Q60,88 85,92 Q110,88 135,92 Q160,88 165,92" stroke="#FF6347" stroke-width="3" fill="none"/>
  
  <!-- Green peppers -->
  <ellipse cx="45" cy="85" rx="10" ry="5" fill="#228B22" transform="rotate(-15 45 85)"/>
  <ellipse cx="85" cy="83" rx="12" ry="5" fill="#2E8B2E" transform="rotate(10 85 83)"/>
  <ellipse cx="125" cy="85" rx="10" ry="5" fill="#228B22" transform="rotate(-5 125 85)"/>
  <ellipse cx="160" cy="84" rx="11" ry="5" fill="#2E8B2E" transform="rotate(8 160 84)"/>
  
  <!-- Jalapeno slices -->
  <circle cx="55" cy="78" r="6" fill="#4A7023"/>
  <circle cx="55" cy="78" r="3" fill="#6B8E23"/>
  <circle cx="100" cy="76" r="7" fill="#4A7023"/>
  <circle cx="100" cy="76" r="4" fill="#6B8E23"/>
  <circle cx="145" cy="78" r="6" fill="#4A7023"/>
  <circle cx="145" cy="78" r="3" fill="#6B8E23"/>
  
  <!-- Mozzarella -->
  <ellipse cx="50" cy="68" rx="16" ry="6" fill="#FFF8DC"/>
  <ellipse cx="100" cy="66" rx="18" ry="7" fill="#FFF8DC"/>
  <ellipse cx="150" cy="68" rx="16" ry="6" fill="#FFF8DC"/>
  
  <!-- Dana salam slices -->
  <circle cx="40" cy="58" r="14" fill="#C41E3A"/>
  <circle cx="40" cy="58" r="11" fill="#DC143C"/>
  <circle cx="38" cy="56" r="2" fill="#FFFAFA" opacity="0.6"/>
  <circle cx="44" cy="60" r="1.5" fill="#FFFAFA" opacity="0.5"/>
  
  <circle cx="80" cy="55" r="15" fill="#C41E3A"/>
  <circle cx="80" cy="55" r="12" fill="#DC143C"/>
  <circle cx="78" cy="53" r="2" fill="#FFFAFA" opacity="0.6"/>
  <circle cx="84" cy="57" r="1.5" fill="#FFFAFA" opacity="0.5"/>
  
  <circle cx="120" cy="55" r="15" fill="#C41E3A"/>
  <circle cx="120" cy="55" r="12" fill="#DC143C"/>
  <circle cx="118" cy="53" r="2" fill="#FFFAFA" opacity="0.6"/>
  <circle cx="124" cy="57" r="1.5" fill="#FFFAFA" opacity="0.5"/>
  
  <circle cx="160" cy="58" r="14" fill="#C41E3A"/>
  <circle cx="160" cy="58" r="11" fill="#DC143C"/>
  <circle cx="158" cy="56" r="2" fill="#FFFAFA" opacity="0.6"/>
  
  <!-- Top ciabatta bread -->
  <path d="M20,48 Q100,28 180,48 L180,43 Q100,20 20,43 Z" fill="#C9956C"/>
  <path d="M20,43 Q100,20 180,43 L175,39 Q100,18 25,39 Z" fill="#D4A574"/>
  <path d="M25,39 Q100,18 175,39 L170,36 Q100,16 30,36 Z" fill="#E8C9A0"/>
  
  <!-- Flour spots -->
  <circle cx="55" cy="32" r="2" fill="#F5DEB3" opacity="0.6"/>
  <circle cx="100" cy="28" r="2.5" fill="#F5DEB3" opacity="0.6"/>
  <circle cx="145" cy="32" r="2" fill="#F5DEB3" opacity="0.6"/>
</svg>
