<svg viewBox="0 0 200 150" xmlns="http://www.w3.org/2000/svg">
  <!-- Shadow -->
  <ellipse cx="100" cy="140" rx="80" ry="8" fill="rgba(0,0,0,0.1)"/>
  
  <!-- Bottom schiacciatta bread -->
  <path d="M15,118 Q100,128 185,118 L182,110 Q100,120 18,110 Z" fill="#B8860B"/>
  <path d="M18,110 Q100,120 182,110 L180,105 Q100,115 20,105 Z" fill="#D4A574"/>
  
  <!-- Truffle mayo -->
  <path d="M35,100 Q60,95 85,100 Q110,95 135,100 Q155,97 170,100" stroke="#F5F5DC" stroke-width="3" fill="none"/>
  <circle cx="55" cy="98" r="1.5" fill="#2F2F2F" opacity="0.4"/>
  <circle cx="105" cy="97" r="1.5" fill="#2F2F2F" opacity="0.4"/>
  <circle cx="145" cy="98" r="1.5" fill="#2F2F2F" opacity="0.4"/>
  
  <!-- Cornichon slices -->
  <ellipse cx="50" cy="92" rx="9" ry="4" fill="#6B8E23" transform="rotate(-10 50 92)"/>
  <ellipse cx="100" cy="90" rx="10" ry="5" fill="#556B2F"/>
  <ellipse cx="150" cy="92" rx="9" ry="4" fill="#6B8E23" transform="rotate(10 150 92)"/>
  
  <!-- Caramelized onion -->
  <ellipse cx="60" cy="84" rx="16" ry="4" fill="#8B4513" opacity="0.8"/>
  <ellipse cx="110" cy="82" rx="18" ry="5" fill="#8B4513" opacity="0.8"/>
  <ellipse cx="155" cy="84" rx="14" ry="4" fill="#8B4513" opacity="0.8"/>
  
  <!-- Roasted red peppers -->
  <rect x="35" y="74" width="35" height="5" rx="2" fill="#8B0000" transform="rotate(-5 52 76)"/>
  <rect x="85" y="72" width="40" height="6" rx="2" fill="#8B0000" transform="rotate(3 105 75)"/>
  <rect x="140" y="74" width="30" height="5" rx="2" fill="#8B0000" transform="rotate(-3 155 76)"/>
  
  <!-- Mozzarella -->
  <ellipse cx="50" cy="65" rx="18" ry="7" fill="#FFF8DC"/>
  <ellipse cx="50" cy="65" rx="14" ry="4" fill="#FFFFF0"/>
  <ellipse cx="100" cy="63" rx="20" ry="8" fill="#FFF8DC"/>
  <ellipse cx="100" cy="63" rx="16" ry="5" fill="#FFFFF0"/>
  <ellipse cx="150" cy="65" rx="18" ry="7" fill="#FFF8DC"/>
  <ellipse cx="150" cy="65" rx="14" ry="4" fill="#FFFFF0"/>
  
  <!-- Dana salam slices -->
  <circle cx="45" cy="52" r="14" fill="#C41E3A"/>
  <circle cx="45" cy="52" r="11" fill="#DC143C"/>
  <circle cx="43" cy="50" r="2" fill="#FFFAFA" opacity="0.5"/>
  <circle cx="90" cy="50" r="15" fill="#C41E3A"/>
  <circle cx="90" cy="50" r="12" fill="#DC143C"/>
  <circle cx="88" cy="48" r="2" fill="#FFFAFA" opacity="0.5"/>
  <circle cx="135" cy="50" r="15" fill="#C41E3A"/>
  <circle cx="135" cy="50" r="12" fill="#DC143C"/>
  <circle cx="133" cy="48" r="2" fill="#FFFAFA" opacity="0.5"/>
  <circle cx="170" cy="52" r="12" fill="#C41E3A"/>
  <circle cx="170" cy="52" r="9" fill="#DC143C"/>
  
  <!-- Top schiacciatta bread -->
  <path d="M15,45 Q100,25 185,45 L185,40 Q100,18 15,40 Z" fill="#A67C52"/>
  <path d="M15,40 Q100,18 185,40 L182,35 Q100,15 18,35 Z" fill="#B8860B"/>
  <path d="M18,35 Q100,15 182,35 L180,31 Q100,13 20,31 Z" fill="#D4A574"/>
  
  <!-- Grill marks -->
  <line x1="40" y1="28" x2="50" y2="31" stroke="#8B4513" stroke-width="2" opacity="0.4"/>
  <line x1="80" y1="22" x2="90" y2="25" stroke="#8B4513" stroke-width="2" opacity="0.4"/>
  <line x1="120" y1="22" x2="130" y2="25" stroke="#8B4513" stroke-width="2" opacity="0.4"/>
  <line x1="160" y1="28" x2="170" y2="31" stroke="#8B4513" stroke-width="2" opacity="0.4"/>
  
  <!-- Full House badge -->
  <rect x="165" y="8" width="30" height="18" rx="3" fill="#8B0000"/>
  <text x="180" y="20" text-anchor="middle" fill="white" font-size="7" font-weight="bold">FULL</text>
</svg>
