<svg viewBox="0 0 200 150" xmlns="http://www.w3.org/2000/svg">
  <!-- Shadow -->
  <ellipse cx="100" cy="140" rx="80" ry="8" fill="rgba(0,0,0,0.1)"/>
  
  <!-- Bottom ciabatta bread -->
  <path d="M20,110 Q100,125 180,110 L175,100 Q100,115 25,100 Z" fill="#D4A574"/>
  <path d="M25,100 Q100,115 175,100 L170,95 Q100,108 30,95 Z" fill="#E8C9A0"/>
  
  <!-- Pesto sauce -->
  <path d="M35,92 Q100,96 165,92" stroke="#4A7023" stroke-width="4" fill="none"/>
  
  <!-- Lettuce leaves -->
  <path d="M30,85 Q50,78 70,85 Q55,82 30,85 Z" fill="#90EE90"/>
  <path d="M65,83 Q90,76 115,83 Q95,80 65,83 Z" fill="#98FB98"/>
  <path d="M110,85 Q135,78 160,85 Q140,82 110,85 Z" fill="#90EE90"/>
  
  <!-- Tomato slices -->
  <circle cx="55" cy="75" r="11" fill="#DC3545"/>
  <circle cx="55" cy="75" r="7" fill="#E63946"/>
  <circle cx="100" cy="73" r="12" fill="#DC3545"/>
  <circle cx="100" cy="73" r="8" fill="#E63946"/>
  <circle cx="145" cy="75" r="11" fill="#DC3545"/>
  <circle cx="145" cy="75" r="7" fill="#E63946"/>
  
  <!-- Mozzarella -->
  <ellipse cx="50" cy="65" rx="16" ry="6" fill="#FFF8DC"/>
  <ellipse cx="100" cy="63" rx="18" ry="7" fill="#FFF8DC"/>
  <ellipse cx="150" cy="65" rx="16" ry="6" fill="#FFF8DC"/>
  
  <!-- Smoked turkey slices (hindi füme) -->
  <path d="M30,55 Q50,50 70,57" fill="#D2B48C"/>
  <path d="M30,55 L30,60 Q50,67 70,60 L70,57 Q50,50 30,55 Z" fill="#DEB887"/>
  <path d="M80,53 Q100,48 120,55" fill="#D2B48C"/>
  <path d="M80,53 L80,58 Q100,65 120,58 L120,55 Q100,48 80,53 Z" fill="#DEB887"/>
  <path d="M130,55 Q150,50 170,57" fill="#D2B48C"/>
  <path d="M130,55 L130,60 Q150,67 170,60 L170,57 Q150,50 130,55 Z" fill="#DEB887"/>
  
  <!-- Top ciabatta bread -->
  <path d="M20,48 Q100,28 180,48 L180,43 Q100,20 20,43 Z" fill="#C9956C"/>
  <path d="M20,43 Q100,20 180,43 L175,39 Q100,18 25,39 Z" fill="#D4A574"/>
  <path d="M25,39 Q100,18 175,39 L170,36 Q100,16 30,36 Z" fill="#E8C9A0"/>
  
  <!-- Basil leaf on top -->
  <ellipse cx="100" cy="30" rx="10" ry="5" fill="#228B22" transform="rotate(15 100 30)"/>
  
  <!-- Flour spots -->
  <circle cx="55" cy="33" r="2" fill="#F5DEB3" opacity="0.6"/>
  <circle cx="145" cy="33" r="2" fill="#F5DEB3" opacity="0.6"/>
</svg>
